PathFileType	4	(X/Y/Z)	DARI_DATA/Captury_Subj6_bilateral_squat02.trc
DataRate	CameraRate	NumFrames	NumMarkers	Units	OrigDataRate	OrigDataStartFrame	OrigNumFrames
60	60	7	47	mm	59.99879837036133	128	204
Frame#	Time		LeftUpLeg_		RightUpLeg_		LeftLeg_		RightLeg_		LeftFoot_		RightFoot_		LeftToeBase_		RightToeBase_		Knee_Lateral_r		Knee_Lateral_l		Ankle_Lateral_r		Ankle_Lateral_l		LeftArm_		LeftForeArm_		LeftHand_		LeftHandEE		RightArm_		RightForeArm_		RightHand_		RightHandEE		Spine_		Spine1_		Spine2_		Spine3_		Spine4_		Spine5_		Spine_x		Spine_y		Spine_z		RASI		LASI		RIPS		LIPS		RTHI		LTHI		RTIB		LTIB		RTOE		LTOE		RHEE		LHEE		RHipAngles		LHipAngles		RKneeAngles		LKneeAngles		RAnkleAngles		LAnkleAngles
			X1	Y1	Z1	X2	Y2	Z2	X3	Y3	Z3	X4	Y4	Z4	X5	Y5	Z5	X6	Y6	Z6	X7	Y7	Z7	X8	Y8	Z8	X9	Y9	Z9	X10	Y10	Z10	X11	Y11	Z11	X12	Y12	Z12	X13	Y13	Z13	X14	Y14	Z14	X15	Y15	Z15	X16	Y16	Z16	X17	Y17	Z17	X18	Y18	Z18	X19	Y19	Z19	X20	Y20	Z20	X21	Y21	Z21	X22	Y22	Z22	X23	Y23	Z23	X24	Y24	Z24	X25	Y25	Z25	X26	Y26	Z26	X27	Y27	Z27	X28	Y28	Z28	X29	Y29	Z29	X30	Y30	Z30	X31	Y31	Z31	X32	Y32	Z32	X33	Y33	Z33	X34	Y34	Z34	X35	Y35	Z35	X36	Y36	Z36	X37	Y37	Z37	X38	Y38	Z38	X39	Y39	Z39	X40	Y40	Z40	X41	Y41	Z41	X42	Y42	Z42	X43	Y43	Z43	X44	Y44	Z44	X45	Y45	Z45	X46	Y46	Z46	X47	Y47	Z47

128	2.11667	-86.21964	599.56989	309.86191	110.82196	598.09070	307.17371	-229.41960	491.07983	-135.61615	234.94986	489.77060	-144.03137	-186.62105	94.05591	57.86737	210.11168	100.31949	67.17123	-229.70963	30.54491	-72.36772	239.87346	31.72262	-64.20667	288.78610	489.49936	-132.14685	-282.55597	489.00647	-121.05997	259.29965	102.42226	100.46292	-234.14050	93.75517	93.56085	-152.76173	954.35065	-145.81470	-216.98831	901.90302	-479.55859	-196.35759	860.97778	-749.07574	-193.14879	853.37036	-848.50586	166.49748	954.44427	-148.41573	243.30804	910.20398	-480.68628	225.45932	901.54810	-753.35187	218.42206	903.04724	-852.86438	12.45586	699.56232	264.43176	11.75357	765.17639	176.36346	11.54984	826.58832	127.72891	11.46456	914.11279	75.88974	9.94706	992.08197	-53.30549	0.00000	0.00000	0.00000	67.60632	699.14832	263.67935	12.36289	744.72528	232.76775	13.30959	731.22375	309.58856	175.91408	595.23511	172.79663	-154.98872	597.71906	177.31111	57.14425	691.13019	309.92230	-31.09649	691.79260	311.12616	242.90291	544.54041	117.03613	-225.95113	543.42615	126.04596	270.45651	307.35889	-54.73625	-248.34953	242.97829	-29.36481	255.06284	23.83663	-147.69452	-250.57347	30.14920	-154.99748	206.43188	30.18767	131.05566	-182.65166	22.29338	119.89653	-111.52377	12.89043	3.00588	-112.09135	13.55792	5.89591	-99.68037	-0.10501	-0.07447	-97.76134	0.09639	-0.11188	-17.11902	-1.86415	6.53581	-17.12605	-0.17210	11.09756
129	2.13333	-86.09982	604.99231	308.98920	110.93886	603.25018	306.24597	-229.23532	491.76581	-135.32932	235.35555	490.31271	-143.74579	-186.87682	94.40872	57.56656	210.25044	100.60904	66.95882	-230.04333	30.84332	-72.61615	239.88945	31.68118	-64.27351	289.17609	490.01999	-131.79085	-282.36823	489.79047	-120.74685	259.39557	102.75754	100.31079	-234.37076	94.17751	93.29451	-152.47336	962.52264	-144.67798	-215.90683	911.43036	-478.78360	-194.03847	871.10663	-748.29382	-190.05124	863.75238	-847.71484	166.83530	961.94257	-147.72632	242.19328	917.95343	-480.36258	223.91768	909.66431	-753.01123	215.62376	911.52759	-852.42072	12.69617	704.84790	263.51971	12.05072	770.68231	175.70192	11.89937	832.28851	127.42689	11.88124	920.12543	76.25108	10.36659	999.11432	-52.24095	0.00000	0.00000	0.00000	67.84582	704.36029	262.75192	12.65454	750.00726	231.85045	13.60476	736.51343	308.67255	175.98947	600.29218	171.85104	-154.90842	603.21777	176.45784	57.38602	696.36151	308.99875	-30.85342	697.14172	310.22723	243.12126	547.55438	116.79651	-225.79344	546.81525	125.77776	270.75024	307.79663	-54.61974	-248.45190	243.54489	-29.40857	254.92003	23.70085	-147.78116	-250.91328	30.53784	-155.24475	206.83307	30.65990	131.05777	-182.93106	22.68199	119.63866	-110.98863	12.96252	3.10085	-111.50008	13.51445	6.01396	-99.04749	-0.09647	-0.06784	-97.07487	0.05340	-0.11285	-16.90248	-2.02771	6.71438	-17.00053	-0.19641	11.07981
130	2.15000	-85.82513	612.01532	308.01157	111.21802	610.48584	305.47150	-228.77455	492.39038	-134.68738	235.50188	491.04089	-142.87369	-187.04253	94.60602	57.46306	210.57793	100.78909	66.83578	-230.17368	30.75869	-72.59338	240.11404	31.72079	-64.34590	289.31757	490.77966	-130.89627	-281.90103	490.49979	-120.07032	259.70093	102.97926	100.21762	-234.52220	94.49349	93.21052	-152.33658	972.42755	-143.32355	-214.76953	922.95752	-477.86151	-190.97653	883.94360	-747.40149	-187.72459	875.81702	-846.78912	167.02873	971.44617	-146.94077	240.89606	927.76447	-479.95178	222.36893	920.14673	-752.60309	211.64798	922.72034	-851.76434	12.90435	711.82990	262.30838	12.27635	777.74945	174.72751	12.10763	839.52032	126.89185	12.05410	927.71161	76.59810	10.55009	1008.02222	-50.90633	0.00000	0.00000	0.00000	68.05525	711.40179	261.59741	12.84387	756.88336	230.48869	13.73203	743.64673	307.35629	176.40694	607.15308	171.15234	-154.49849	609.72156	175.41806	57.55797	703.54547	307.86017	-30.68347	704.23041	308.99771	243.32397	551.85321	116.85674	-225.41681	551.02551	125.63908	270.98798	308.33142	-54.18107	-248.39047	244.01326	-29.20683	254.95474	23.75514	-147.88892	-250.99709	30.38074	-155.23343	207.53935	30.94426	131.06744	-183.13306	23.01709	119.69636	-110.38670	12.87720	3.30051	-110.90839	13.56153	6.07944	-98.09400	-0.11813	-0.06099	-96.15495	0.04392	-0.12641	-16.68232	-2.17817	6.91783	-16.75037	-0.24107	11.05287
131	2.16667	-85.80794	620.69720	306.82809	111.22653	618.67389	303.98184	-228.27513	492.40753	-133.59424	235.61856	491.61646	-142.23560	-187.38301	94.29736	58.06116	210.68472	100.95956	66.71695	-230.32942	29.73383	-71.70247	240.29759	31.65822	-64.32446	289.41815	491.34882	-130.18622	-281.41028	490.73230	-118.98251	259.76642	103.20534	100.15578	-234.85674	94.40877	93.81651	-152.19377	984.30640	-141.91968	-213.74939	936.11584	-476.80676	-188.46143	898.33240	-746.38599	-185.49713	890.97845	-845.84277	167.18387	982.76605	-145.84436	239.48279	939.72052	-479.28210	219.54581	933.02948	-751.85828	208.63440	936.16302	-850.98260	13.09834	720.21893	260.86908	12.48486	786.32764	173.67627	12.35588	848.28064	126.40260	12.34109	936.82440	77.11890	10.74365	1018.49414	-49.28176	0.00000	0.00000	0.00000	68.24681	719.65259	260.07242	13.10035	765.24011	229.00365	14.07577	752.07935	305.88321	176.19669	615.04230	169.56448	-154.69412	618.44025	174.34441	57.80236	711.86938	306.35950	-30.43518	712.77551	307.63412	243.34636	556.54614	116.49907	-225.18648	556.03986	125.55939	271.11206	308.76599	-53.83714	-248.42122	243.94974	-28.40419	255.03862	23.66445	-147.88242	-251.01341	28.97580	-154.37488	207.99873	31.27289	131.13580	-183.58780	23.05687	120.70000	-109.53950	13.01966	3.42263	-109.84334	13.37232	6.23558	-97.04160	-0.09784	-0.05669	-94.97100	-0.07306	-0.14239	-16.45935	-2.29760	7.16383	-16.34013	-0.33634	11.04990
132	2.18333	-85.18787	630.88928	306.72665	111.82816	628.70325	302.89450	-228.20171	495.37665	-131.34912	235.41373	492.40881	-140.81421	-187.80901	95.57874	56.86797	210.64474	100.96735	66.68439	-230.73749	31.00917	-72.89864	240.21902	31.63474	-64.34920	289.21454	492.08618	-128.77168	-281.29190	493.68967	-116.57624	259.74112	103.19041	100.10320	-235.18536	95.71553	92.75213	-152.33348	997.55157	-140.41199	-213.01115	951.15485	-475.71240	-186.81163	914.42303	-745.34985	-183.82709	907.64960	-844.84723	167.04782	995.59631	-144.79398	238.06935	953.45312	-478.62128	216.65277	948.19470	-751.11658	205.08275	951.82068	-850.14941	13.55471	730.06122	259.67261	12.62961	796.10223	172.67661	12.45348	858.15222	125.85837	12.54709	947.01208	77.54038	10.91672	1030.06665	-47.71636	0.00000	0.00000	0.00000	68.69802	729.44934	258.60004	13.42711	774.89105	227.53877	14.78293	762.18951	304.48978	176.11345	624.21985	168.17398	-154.74641	627.89105	174.60947	58.48285	721.95081	304.98514	-29.74644	722.92981	306.70126	243.56136	562.26996	116.61977	-224.73825	562.90881	126.81097	270.98096	309.23706	-53.11339	-248.70227	246.10736	-28.16663	254.78363	23.72046	-147.94565	-251.35049	30.47073	-155.59052	208.37967	31.34286	131.18660	-184.08435	24.35143	119.52601	-108.79795	13.21592	3.76842	-109.29745	13.14976	6.46721	-95.68537	-0.07087	-0.06120	-93.57463	-0.03581	-0.14633	-16.22101	-2.37438	7.44006	-15.82940	-0.50906	11.08046
133	2.20000	-85.03706	642.05981	305.10822	111.98117	639.88861	301.37961	-227.93048	496.34320	-129.71945	234.98596	493.21112	-139.16840	-188.27846	95.70923	56.87056	210.59547	100.89828	66.72339	-230.93040	30.67848	-72.75682	240.31151	31.53519	-64.26198	288.78094	492.87564	-127.10015	-281.00366	494.81082	-114.86876	259.68982	103.13689	100.14413	-235.58324	96.02323	92.84795	-152.32269	1012.20300	-138.83345	-212.23753	967.43616	-474.49237	-186.15988	931.90289	-744.30219	-182.80750	926.08813	-843.84851	167.02522	1010.07684	-143.47026	236.44489	969.18054	-477.78925	213.76074	965.44672	-750.20709	201.31686	969.28510	-849.12592	13.72771	741.33258	258.31415	12.82599	807.67035	171.82692	12.62354	869.90149	125.63049	12.63165	959.05798	78.32220	10.87881	1043.30701	-45.85718	0.00000	0.00000	0.00000	68.87164	740.72491	257.27054	13.61609	786.22894	226.27332	14.93018	773.36786	303.19852	176.34053	635.68701	166.68532	-154.52306	639.33319	172.94696	58.63130	733.12976	303.63440	-29.59898	734.10205	305.30417	243.42177	568.68561	116.66682	-224.49666	569.62512	126.86812	270.73117	309.71802	-52.21478	-248.92422	246.73941	-27.44865	254.78584	23.70809	-147.88232	-251.31212	29.97077	-155.50470	208.73877	31.34664	131.31717	-184.77481	24.71974	119.81063	-107.41579	13.12142	4.07951	-107.89842	13.16147	6.63868	-94.14679	-0.04435	-0.07537	-92.03468	-0.10530	-0.13172	-15.95302	-2.42146	7.71609	-15.36544	-0.75922	11.10770
134	2.21667	-84.77139	654.38049	304.08722	112.23724	652.23480	299.86768	-227.60751	496.97379	-126.66553	234.35910	494.14789	-136.96381	-188.43976	94.99121	57.10481	210.42607	100.71326	66.83014	-230.83685	30.09818	-72.67511	240.21793	31.39733	-64.16296	288.16208	493.91769	-124.92873	-280.63541	495.43945	-111.65411	259.52319	102.94605	100.24721	-235.62778	95.33492	93.23495	-152.53313	1028.09058	-137.37834	-211.53003	985.12677	-473.43530	-185.93526	950.66833	-743.43066	-182.75613	945.50146	-843.01837	166.88777	1026.02161	-142.08548	234.94876	986.60803	-476.86160	210.35410	984.62451	-749.13196	198.51215	988.69031	-848.11554	13.84582	753.36017	256.37012	12.76317	819.69513	170.14787	12.52410	882.09314	124.53686	12.58106	971.67053	78.47179	10.83391	1057.70654	-44.21606	0.00000	0.00000	0.00000	68.98706	752.75958	255.18909	13.63970	798.03894	224.02705	15.15465	785.69830	301.03378	176.25201	647.13959	165.04007	-154.59543	650.74304	172.12628	58.86777	745.47534	301.62933	-29.35821	746.43622	303.51898	243.27187	575.95959	116.89954	-224.11617	576.59509	128.02539	270.31781	310.23389	-50.99313	-248.95018	246.75008	-25.99441	254.57759	23.74565	-147.81931	-251.03665	29.51628	-155.46860	208.94511	31.19018	131.46434	-185.09242	23.94041	119.98419	-106.37933	13.15197	4.34840	-106.84631	13.02146	6.97639	-92.39068	-0.16025	-0.08974	-90.15063	-0.06052	-0.10360	-15.64803	-2.47420	7.95693	-15.00203	-1.05835	11.08793
